<?xml version="1.0" encoding="utf-8"?>
<!-- Generator: Adobe Illustrator 23.0.3, SVG Export Plug-In . SVG Version: 6.00 Build 0)  -->
<svg version="1.1" id="图层_1" xmlns="http://www.w3.org/2000/svg" xmlns:xlink="http://www.w3.org/1999/xlink" x="0px" y="0px"
	 viewBox="0 0 920.6 303.9" style="enable-background:new 0 0 920.6 303.9;" xml:space="preserve">
<style type="text/css">
	.st0{fill:#FFFFFF;}
</style>
<path class="st0" d="M93.3,25.1C67.7-19.2,0-1.1,0,50.1v84.4h48.2V43.6l61.5,108.3L48.2,260.3v-90.9H0v84.4
	c0,51.2,67.7,69.3,93.3,25l72-126.8L93.3,25.1z"/>
<g>
	<path class="st0" d="M226.7,260.3l-52.5-92.6l-27.8,48.9l35.2,62.1c25.6,44.3,93.3,26.2,93.3-25v-84.4h-48.2V260.3z"/>
	<path class="st0" d="M181.6,25.1l-35.2,62.1l27.8,48.9l52.5-92.6v91h48.2V50.1C274.9-1.1,207.2-19.2,181.6,25.1z"/>
</g>
<g>
	<rect x="409.6" y="232.4" class="st0" width="7.6" height="49.9"/>
	<path class="st0" d="M455.1,256.2c2-2.5,3-5.6,3-9.1c0-4.5-1.6-8.2-4.9-10.9c-2.9-2.5-7.7-3.7-14.3-3.7H430v49.9h7.6v-20.5h1.3
		l14.2,20.3h9.4L447.1,261C450.4,260.3,453.1,258.7,455.1,256.2z M437.7,255.2v-15.7h2.6c3.4,0,6,0.6,7.7,1.9
		c1.7,1.3,2.6,3.2,2.6,5.7c0,2.7-0.9,4.7-2.6,6.1c-1.8,1.3-4.4,2-8,2H437.7z"/>
	<path class="st0" d="M592.4,256.2c2-2.5,3-5.6,3-9.1c0-4.5-1.6-8.2-4.9-10.9c-2.9-2.5-7.7-3.7-14.3-3.7h-8.9v49.9h7.6v-20.5h1.3
		l14.2,20.3h9.4L584.4,261C587.8,260.3,590.4,258.7,592.4,256.2z M575.1,255.2v-15.7h2.6c3.4,0,6,0.6,7.7,1.9
		c1.7,1.3,2.6,3.2,2.6,5.7c0,2.7-0.9,4.7-2.6,6.1c-1.8,1.3-4.4,2-8,2H575.1z"/>
	<polygon class="st0" points="602.4,239.6 613.8,239.6 613.8,282.3 621.5,282.3 621.5,239.6 632.9,239.6 632.9,232.4 602.4,232.4 	
		"/>
	<path class="st0" d="M687.5,263.4h12.3c-0.4,3.4-2,6.4-4.9,8.9s-6.3,3.7-9.9,3.7c-4.3,0-8.4-1.7-12-5c-3.9-3.6-5.9-8.2-5.9-13.6
		c0-5.3,1.8-9.8,5.3-13.4c3.5-3.6,8-5.4,13.2-5.4c5.8,0,10.8,2.7,14.9,8.1v0.1l5.4-5.2c-3.1-3.6-6.3-6.2-9.5-7.8
		c-3.4-1.6-7-2.4-10.9-2.4c-7.2,0-13.4,2.6-18.5,7.6c-5,5-7.6,11.2-7.6,18.4c0,7.1,2.5,13.2,7.5,18.2s11,7.6,17.9,7.6
		c7.1,0,13.1-2.6,17.7-7.8c2-2.3,3.5-4.8,4.4-7.5c0.9-2.9,1.3-6.2,1.3-9.9v-1.7h-20.7V263.4z"/>
	<path class="st0" d="M743.4,256.2c2-2.5,3-5.6,3-9.1c0-4.5-1.6-8.2-4.9-10.9c-2.9-2.5-7.7-3.7-14.3-3.7h-8.9v49.9h7.6v-20.5h1.3
		l14.2,20.3h9.4L735.4,261C738.7,260.3,741.4,258.7,743.4,256.2z M726.1,255.2v-15.7h2.6c3.4,0,6,0.6,7.7,1.9
		c1.7,1.3,2.6,3.2,2.6,5.7c0,2.7-0.9,4.7-2.6,6.1c-1.8,1.3-4.4,2-8,2H726.1z"/>
	<path class="st0" d="M847.5,262.4L847.5,262.4c-0.1,4.3-0.8,7.5-2.2,9.3c-2.1,2.8-5,4.3-8.8,4.3c-3.7,0-6.7-1.4-8.7-4.3
		c-1.4-2-2.1-5.1-2.1-9.3v-30h-7.6v32.1c0,5.2,1.7,9.6,4.9,13c3.6,3.8,8.2,5.7,13.6,5.7c5.3,0,9.9-1.9,13.6-5.7
		c3.3-3.4,4.9-7.8,4.9-13v-32.1h-7.6L847.5,262.4L847.5,262.4z"/>
	<path class="st0" d="M377.6,231.4L354,282.2v0.1h8.2l5.5-12.1h21.2l5.2,12h8.4l-22.8-50.8L377.6,231.4L377.6,231.4z M371,263
		l7.6-16.7l7.3,16.7H371z"/>
	<path class="st0" d="M488.7,233.2c-2.1-0.6-5.3-0.9-9.5-0.9h-8.6v50h7.7v-20h3.4c5.2,0,9.4-1.4,12.4-4c3.1-2.7,4.6-6.6,4.6-11.2
		c0-4.3-1.5-7.9-4.3-10.7C492.8,234.9,490.8,233.8,488.7,233.2z M488.7,253.3c-1.7,1.3-4.3,2-7.7,2h-2.7v-15.8h2.4
		c3.5,0,6.2,0.6,8,1.9c1.7,1.3,2.6,3.2,2.6,5.7C491.3,249.7,490.4,252,488.7,253.3z"/>
	<path class="st0" d="M886,233.3c-2.1-0.6-5.3-0.9-9.5-0.9h-8.6v50h7.7v-20h3.4c5.2,0,9.4-1.4,12.4-4c3.1-2.7,4.6-6.6,4.6-11.2
		c0-4.3-1.4-7.8-4.3-10.6C890.1,235,888.1,233.9,886,233.3z M886,253.3c-1.7,1.3-4.3,2-7.7,2h-2.7v-15.8h2.4c3.5,0,6.2,0.6,8,1.9
		s2.6,3.2,2.6,5.7C888.6,249.7,887.7,252,886,253.3z"/>
	<path class="st0" d="M531.1,231.4c-7.2,0-13.4,2.5-18.5,7.6c-5.1,5-7.7,11.1-7.7,18.1c0,8,2.9,14.5,8.5,19.4
		c5.1,4.4,10.9,6.7,17.4,6.7c7.2,0,13.5-2.5,18.6-7.5s7.7-11.1,7.7-18.3c0-7.1-2.6-13.3-7.7-18.3C544.3,234,538.2,231.4,531.1,231.4
		z M543.9,270.6c-3.5,3.6-8,5.4-13.1,5.4c-4.8,0-9-1.8-12.6-5.3s-5.5-8-5.5-13.5c0-5.2,1.8-9.6,5.3-13.1c3.5-3.6,7.9-5.4,13-5.4
		s9.5,1.8,13,5.4c3.5,3.5,5.3,8,5.3,13.2C549.2,262.5,547.4,267,543.9,270.6z"/>
	<path class="st0" d="M781.8,231.4c-7.2,0-13.4,2.5-18.5,7.6c-5.1,5-7.7,11.1-7.7,18.1c0,8,2.9,14.5,8.5,19.4
		c5.1,4.4,10.9,6.7,17.4,6.7c7.2,0,13.5-2.5,18.6-7.5s7.7-11.1,7.7-18.3c0-7.1-2.6-13.3-7.7-18.3C795,234,788.8,231.4,781.8,231.4z
		 M794.6,270.6c-3.5,3.6-8,5.4-13.1,5.4c-4.8,0-9-1.8-12.6-5.3s-5.5-8-5.5-13.5c0-5.2,1.8-9.6,5.3-13.1c3.5-3.6,7.9-5.4,13-5.4
		s9.5,1.8,13,5.4c3.5,3.5,5.3,8,5.3,13.2C799.9,262.5,798.1,267,794.6,270.6z"/>
	<path class="st0" d="M374.4,201c4.5,0,8.4-1.5,11.5-4.5c3-3,4.6-6.8,4.6-11.4c0-3.4-0.9-6.3-2.8-8.7c-1.9-2.3-4.8-4.4-8.9-6l-4.9-2
		c-3.5-1.5-5.3-3.4-5.3-5.7c0-1.7,0.7-3.2,2-4.3c1.3-1.2,3.1-1.7,5.1-1.7c1.7,0,3,0.3,4.1,1c1,0.6,2.1,1.9,3.2,3.8v0.1l6.2-3.7v-0.1
		c-3.2-5.6-7.7-8.4-13.5-8.4c-4.2,0-7.8,1.3-10.7,3.8c-2.9,2.5-4.3,5.7-4.3,9.4c0,5.5,3.4,9.8,10.2,12.7l4.8,2
		c1.2,0.5,2.3,1.1,3.2,1.7c0.9,0.6,1.6,1.2,2.2,1.9s1,1.4,1.2,2.2c0.3,0.8,0.4,1.7,0.4,2.6c0,2.4-0.8,4.3-2.3,5.9
		c-1.5,1.5-3.4,2.3-5.7,2.3c-2.9,0-5.2-1.1-6.7-3.2c-0.8-1.1-1.4-3.1-1.8-6v-0.1l-7.7,1.7h-0.1v0.1c0.8,4.7,2.6,8.3,5.3,10.8
		C366.5,199.8,370.1,201,374.4,201z"/>
	<polygon class="st0" points="436.9,200.2 436.9,150.4 429.3,150.4 429.3,169.8 408,169.8 408,150.4 400.4,150.4 400.4,200.2 
		408,200.2 408,177 429.3,177 429.3,200.2 	"/>
	<polygon class="st0" points="477.1,193 457.2,193 457.2,176.6 476.6,176.6 476.6,169.4 457.2,169.4 457.2,157.6 477.1,157.6 
		477.1,150.4 449.6,150.4 449.6,200.2 477.1,200.2 	"/>
	<polygon class="st0" points="576.9,193 553.1,193 577.4,150.5 577.5,150.4 544.6,150.4 544.6,157.6 564.9,157.6 540.6,200.1 
		540.6,200.2 576.9,200.2 	"/>
	<polygon class="st0" points="586.5,150.4 586.5,200.2 594.1,200.2 594.1,177 615.4,177 615.4,200.2 623,200.2 623,150.4 
		615.4,150.4 615.4,169.8 594.1,169.8 594.1,150.4 	"/>
	<polygon class="st0" points="663.2,193 643.3,193 643.3,176.6 662.6,176.6 662.6,169.4 643.3,169.4 643.3,157.6 663.2,157.6 
		663.2,150.4 635.7,150.4 635.7,200.2 663.2,200.2 	"/>
	<polygon class="st0" points="490,149.3 487.8,149.3 487.8,200.2 495.4,200.2 495.4,165.5 529.4,201 531.6,201 531.6,150.4 
		524,150.4 524,184.8 490.1,149.3 	"/>
	<polygon class="st0" points="710.1,184.8 676.2,149.3 676.1,149.3 673.9,149.3 673.9,200.2 681.5,200.2 681.5,165.5 715.5,201 
		717.7,201 717.7,150.4 710.1,150.4 	"/>
	<path class="st0" d="M648.4,90.2c7.7-2.4,17.8-5.7,26.8-9.9l-1-7.2l-0.1,0.1c-2.9,1.1-5.6,2.1-8.2,3V46.9h9.4v-6.5h-9.4V18.7h-9.1
		v21.7h-9.5v6.5h9.5v32c-3.2,0.9-6.6,1.9-10.3,2.8h-0.1L648.4,90.2L648.4,90.2z"/>
	<path class="st0" d="M669.8,89.2L669.8,89.2l4.2,4.6l0.1,0.1l0.1-0.1c7.7-4.9,13-10.4,16.6-17.1c3-5.5,4.9-11.8,6.2-20.3h8.3
		c-3.5,24.1-12.2,34.2-24.2,41.9l-0.1,0.1l4.4,5l0.1,0.1h0.1c8.1-4,14.3-9.3,19-16.2c5.5-8.1,8.8-18.2,10.2-30.7h4.9V90
		c0,1.8-1,4.5-4,4.5h-12.4l2,6.4v0.1h0.1h14.4h0.1c5.1-0.1,9.2-4.3,9.2-9.4v-35v-3.8V50h-37.3c2.2-1.6,4.5-2.9,6.9-4.2
		c9.2-5.2,19.6-11.2,26.4-16.6l0.1-0.1v-0.2v-6.3h-46.5v6.6h30.6c-6.7,5.6-20,13.4-29,18.7c-1.5,0.9-2.9,1.7-4.1,2.4l-0.1,0.1v0.2
		v5.7h11.4C685.3,70.8,679.2,82.2,669.8,89.2z"/>
	<path class="st0" d="M637.9,74.7L637.9,74.7l-7.6-1.3h-0.1v16.1c0,0.1,0.1,2.2-0.9,3.3c-0.4,0.4-1,0.7-1.6,0.7h-2.9
		c-2,0-2.2-1.5-2.2-3.3V21.9h-34V22c0,1.7,0,21.8,0,35.4c0,22.9-3.1,30.6-11.9,40.9l-0.1,0.1l5.8,5.2l0.1,0.1l0.1-0.1
		c9.7-8.8,15.7-19.6,15.7-46.2v-29h14.9v64.8c0,4,3.2,7.2,7.2,7.2h9.4c1.9,0,8.1-0.9,8.1-10C637.9,78.1,637.9,74.7,637.9,74.7z"/>
	<path class="st0" d="M554.3,80.2l0.1-0.2c3.5-5.9,6.7-12,9.5-18.3V103h9V59.2c2.5,3.1,5.9,7.3,7.6,10l0.1,0.1l6.2-5.8l0.1-0.1
		l-0.1-0.1c-3.2-3.7-7.9-8.5-11-11.3l-0.1-0.1l-2.9,2.6V41.9h10.8v-6.5h-10.8V18.6h-9v16.8h-12.5v6.5H563
		c-2.7,10.8-10.5,26.2-13.8,32.4v0.1L554.3,80.2L554.3,80.2z"/>
	<path class="st0" d="M747.1,50.9c2.3-1.9,4.8-4,7.4-6.5v27.4h9v-3.3h62.2v-5.7H796v-6.1h26V51h-26v-5.8h26v-5.8h-26v-5.8h29.1v-6.2
		h-30.8l3.1-1.6l0.1-0.1l-0.1-0.1c-0.6-1-1.3-2-1.9-3.1c-1.5-2.5-3.1-5.1-4.7-6.9l-0.1-0.1l-6.6,3.3l-0.1,0.1l0.1,0.1
		c1,1.4,2.2,4,3.5,6.6c0.3,0.6,0.6,1.2,0.9,1.8h-20.4c1.3-2.2,2.7-4.6,4-7.3l0.1-0.1l-9-2.2h-0.1v0.1c-2.7,8-11.3,20.7-20.5,27.1
		l-0.1,0.1l3.6,6.7L747.1,50.9z M763.6,34.1c0-0.1,0.1-0.3,0.3-0.5h23.4v5.8h-23.7V34.1z M763.5,45.3h23.7v5.8h-23.7V45.3z
		 M763.5,56.8h23.7v6.1h-23.7V56.8z"/>
	<polygon class="st0" points="746.1,51.8 746.1,51.8 745.9,51.9 	"/>
	<path class="st0" d="M827.9,74.8h-36.6v-4.2h-9v4.2h-36.4V81h29.7c-8.6,9.8-23.4,13.1-29.2,14.3c-0.6,0.1-1.1,0.2-1.5,0.3h-0.1
		l2.4,6.3l0.4-0.1c16.5-3.5,28.1-8.6,34.7-15.2v16.1h9V86.2c3.5,3.5,8.2,6.5,14.2,9.1c7.9,3.4,15.8,5.1,19.6,5.9l0.6,0.1l3.4-8
		l0.1-0.1h-0.1c-0.9-0.2-2.2-0.4-3.7-0.6c-7.1-1.2-19.8-3.2-29.4-11.6h31.9L827.9,74.8L827.9,74.8z"/>
	<path class="st0" d="M914.6,21.7h-3.3h-57.8h-1.8h-7.6v78.4h7.6h1.8h57.8h3.3h6V21.7H914.6z M911.3,93.5h-57.8V27.9h57.8V93.5z"/>
	<path class="st0" d="M860,82.7L860,82.7c8-3.6,21.3-14.6,29.2-28.7v23.3c0,3.4-0.3,5.5-4.4,5.5h-10.5l1.8,6.2v0.1h12.5
		c5.4,0,9.2-4.2,9.2-10.1V48h9.6v-6.3h-9.6V32H889v9.7h-31V48h24c-7.4,15.1-19.2,26-25.4,29.6l-0.1,0.1L860,82.7L860,82.7z"/>
	<path class="st0" d="M360.5,29.4l0.3,0.2c3.5,2.8,6.8,5.4,11.2,9.6l0.1,0.1l5.3-6.5l0.1-0.1l-0.1-0.1c-3.8-3.3-9.8-8-15.5-11.5
		l-0.1-0.1l-4.3,5.8l-0.1,0.1l0.1,0.1C358.6,27.9,359.5,28.6,360.5,29.4z"/>
	<path class="st0" d="M368.8,60.9l0.1,0.1l5.6-6.4l0.1-0.1l-0.1-0.1c-4.8-4.1-9.9-8.3-15.2-11.8l-4.5,5.4l-0.1,0.1l0.1,0.1
		C359.9,52.5,363.1,55.2,368.8,60.9z"/>
	<path class="st0" d="M364.8,102.9L364.8,102.9c3.4-10.1,7.8-25.5,8.9-33.1v-0.1l-7.4-1.8h-0.1V68c-2.8,11.3-6.1,22-9.9,32v0.1
		L364.8,102.9L364.8,102.9z"/>
	<polygon class="st0" points="390.6,30.1 428.5,30.1 428.5,39.7 437.6,39.7 437.6,23.6 381.4,23.6 381.4,39.7 390.6,39.7 	"/>
	<path class="st0" d="M384.8,57.9c6.6-4.7,14.2-10.2,20.6-15.9l0.1-0.1l-5.4-6l-0.1-0.1l-0.1,0.1c-6.1,5.8-11.5,10.4-19.3,16.3
		l-0.1,0.1L384.8,57.9L384.8,57.9z"/>
	<path class="st0" d="M422.6,39.9l-0.3-0.2c-1.6-1.1-3.2-2.3-4.9-3.5l-0.1-0.1l-4.3,5.2l-0.1,0.1l0.1,0.1c2,1.6,4,3.1,5.9,4.5
		c4.2,3.2,8.5,6.5,13.4,10.8l0.1,0.1l5.3-6.3l0.1-0.1l-0.1-0.1c-3.3-2.6-6.6-4.8-9.9-7C426,42.2,424.3,41,422.6,39.9z"/>
	<rect x="525.9" y="20.5" class="st0" width="9.2" height="82.8"/>
	<rect x="505.9" y="25" class="st0" width="9.2" height="71.4"/>
	<path class="st0" d="M472.4,99.3L472.4,99.3l5.6,5.3l0.1,0.1l0.1-0.1c7.6-6.5,12.3-13.7,14.8-22.5c2.2-8,2.5-16.5,2.5-26V20.5h-9.4
		v35.6l0,0C486.1,74.3,486.1,84.3,472.4,99.3z"/>
	<path class="st0" d="M454,88.3c12.2-2.9,21.2-5.6,27.8-8.1l-0.7-6.8H481c-3.5,0.9-6.3,1.6-8.8,2.3V46.6h9.4v-6.5h-9.4V19.9h-9v20.2
		H454v6.5h9.2v31.3c-3,0.7-6.2,1.4-10.3,2.2h-0.1L454,88.3L454,88.3z"/>
	<path class="st0" d="M375.9,94.6l-0.1,0.1l0.1,0.1c0,0,1.6,2.6,3.3,5.2l0.1,0.1l0.1-0.1c13.3-7.7,19.4-13.8,25.7-22v26.1h9.2V76.6
		c7.5,10.7,15.4,18.4,24,23.4l0.1,0.1l4.8-7l0.1-0.1l-0.1-0.1c-9.6-5.4-18.5-13.6-26.6-24.5h22.9v-6.5h-25.3v-11H405v11h-25.3v6.5
		h21.2C396.6,75.4,391.1,84,375.9,94.6z"/>
</g>
</svg>
