<?xml version="1.0" encoding="utf-8"?>
<!-- Generator: Adobe Illustrator 23.0.3, SVG Export Plug-In . SVG Version: 6.00 Build 0)  -->
<svg version="1.1" id="图层_1" xmlns="http://www.w3.org/2000/svg" xmlns:xlink="http://www.w3.org/1999/xlink" x="0px" y="0px"
	 viewBox="0 0 920.6 242" style="enable-background:new 0 0 920.6 242;" xml:space="preserve">
<style type="text/css">
	.st0{fill:#FFFFFF;}
</style>
<path class="st0" d="M132.1,121.2l-56.8,100c-20.2,35-73.6,20.7-73.6-19.7v-66.5h38v71.7l0,0l0,0l48.5-85.5L39.8,35.7v71.7h-38V40.9
	c0-40.4,53.4-54.7,73.6-19.7L132.1,121.2z"/>
<path class="st0" d="M180.7,134.9h38v66.5c0,40.4-53.4,54.7-73.6,19.7l-27.8-49l21.9-38.6l41.4,73l0,0l0,0L180.7,134.9L180.7,134.9z
	 M145.1,21.2l-27.8,49l21.9,38.6l41.4-73l0,0l0,0v71.7h38V40.9C218.7,0.5,165.3-13.8,145.1,21.2z"/>
<path class="st0" d="M302.5,163.2c-2.3,2.3-5.2,3.4-8.7,3.4c-3.3,0-6-1-8.1-2.9s-3.4-4.7-3.9-8.2v-0.1h0.1l5.8-1.3v0.1
	c0.3,2.2,0.7,3.7,1.3,4.5c1.1,1.6,2.8,2.4,5,2.4c1.7,0,3.2-0.6,4.3-1.8c1.1-1.2,1.7-2.7,1.7-4.4c0-0.7-0.1-1.4-0.3-2
	c-0.2-0.6-0.5-1.2-0.9-1.7s-1-1-1.6-1.4c-0.7-0.5-1.5-0.9-2.4-1.3l-3.6-1.5c-5.1-2.2-7.8-5.4-7.8-9.6c0-2.8,1.1-5.2,3.3-7.1
	c2.2-1.9,4.9-2.9,8.1-2.9c4.3,0,7.8,2.1,10.2,6.4v0.1l0,0l-4.7,2.8v-0.1c-0.8-1.5-1.7-2.4-2.4-2.9c-0.8-0.5-1.8-0.8-3.1-0.8
	c-1.5,0-2.8,0.4-3.9,1.3c-1,0.9-1.5,1.9-1.5,3.2c0,1.8,1.4,3.3,4,4.4l3.7,1.5c3.1,1.2,5.3,2.8,6.7,4.5c1.4,1.8,2.1,4,2.1,6.6
	C305.9,158.1,304.8,160.9,302.5,163.2z M341,165.9v-37.6h-5.8V143h-16.1v-14.7h-5.8v37.6h5.8v-17.5h16.1v17.5L341,165.9L341,165.9z
	 M371.5,133.7v-5.4h-20.8v37.6h20.8v-5.4h-15v-12.4H371v-5.4h-14.6v-8.9h15.1V133.7z M369.6,228.7h20.8v-5.4h-15v-12.4H390v-5.4
	h-14.6v-8.9h15v-5.4h-20.8V228.7z M446.9,160.4h-18l18.4-32.1v-0.1h-24.9v5.4h15.4l-18.4,32.1v0.1h27.5V160.4z M481.8,165.9v-37.6
	H476V143h-16.1v-14.7h-5.8v37.6h5.8v-17.5H476v17.5L481.8,165.9L481.8,165.9z M512.2,133.7v-5.4h-20.8v37.6h20.8v-5.4h-15v-12.4
	h14.6v-5.4h-14.6v-8.9h15V133.7z M594.9,165.2c-1.7,0.5-3.8,0.7-6.4,0.7h-9.3v-37.6h6.5c2.5,0,4.5,0.2,6,0.6c1.5,0.4,2.8,1.1,3.8,2
	c1.1,1,1.9,2.2,2.5,3.6c0.6,1.4,1,2.9,1,4.4c0,2.7-1.1,5-3.1,6.8c2,0.7,3.5,1.9,4.7,3.6c1.2,1.7,1.8,3.7,1.8,5.9
	c0,2.9-1.1,5.4-3.1,7.5C597.9,163.9,596.5,164.8,594.9,165.2z M584.7,144.4h2.6c2.1,0,3.7-0.5,4.7-1.4s1.5-2.3,1.5-4.1
	c0-1.7-0.5-3.1-1.5-4s-2.6-1.4-4.5-1.4h-2.8V144.4z M594.7,158.9c1.2-1.1,1.9-2.4,1.9-4.1c0-1.6-0.6-3-1.8-4
	c-1.2-1.1-3.3-1.6-6.3-1.6h-3.7v11.2h4.3C591.6,160.4,593.5,159.9,594.7,158.9z M663.3,127.6c5.3,0,10,1.9,13.8,5.8
	c3.8,3.8,5.8,8.5,5.8,13.8c0,5.4-2,10-5.8,13.8c-3.9,3.8-8.6,5.7-14.1,5.7c-4.8,0-9.2-1.7-13.1-5c-4.2-3.7-6.4-8.6-6.4-14.6
	c0-5.3,2-9.9,5.8-13.6C653.2,129.4,657.9,127.6,663.3,127.6z M673,137.1c-2.6-2.7-5.9-4-9.8-4c-3.9,0-7.2,1.4-9.8,4
	c-2.7,2.7-4,6-4,9.9c0,4.1,1.4,7.5,4.1,10.1c2.7,2.6,5.9,4,9.5,4c3.9,0,7.2-1.4,9.9-4c2.7-2.7,4-6.1,4-10
	C677,143.2,675.6,139.8,673,137.1z M635.5,165.9l-3.9-9.1h-16l-4.2,9.1h-6.2v-0.1l17.8-38.3h1.6l0,0l17.2,38.3L635.5,165.9
	L635.5,165.9z M629.2,151.4l-5.5-12.6l-5.8,12.6H629.2z M710.8,156.8h-16l-4.2,9.1h-6.2v-0.1l17.8-38.3h1.6l0,0l17.2,38.3h-6.3l0,0
	L710.8,156.8z M708.4,151.4l-5.5-12.6l-5.8,12.6H708.4z M753.7,154.2l-25.5-26.7l0,0h-1.8v38.3h5.8v-26.2l25.7,26.9l0,0h1.6v-38.3
	h-5.8V154.2z M381.4,127.6L381.4,127.6h-1.9v38.3h5.8v-26.2l25.7,26.9l0,0h1.6v-38.3h-5.8v26L381.4,127.6z M526.1,139.7l25.7,26.9
	l0,0h1.6v-38.3h-5.8v26l-25.5-26.7l0,0h-1.8v38.3h5.8V139.7z M286,228.8h5.8v-37.7H286V228.8z M340.4,196.6h8.6v32.2h5.9v-32.2h8.6
	v-5.5h-23v5.5H340.4z M896.3,190.9v5.5h8.6v32.2h5.9v-32.2h8.6V191L896.3,190.9L896.3,190.9z M410.9,212.7l11.7,16h-7.1l0,0
	l-10.7-15.4h-0.9v15.4h-5.8V191h6.7c5,0,8.6,0.9,10.8,2.8c2.4,2.1,3.7,4.9,3.7,8.3c0,2.7-0.8,5-2.3,6.9
	C415.4,210.9,413.4,212.2,410.9,212.7z M405.6,208.2c2.7,0,4.7-0.5,6-1.5s2-2.6,2-4.6c0-3.8-2.6-5.7-7.8-5.7h-2v11.8H405.6z
	 M503.6,196.4h8.6v32.3h5.8v-32.3h8.6V191h-23L503.6,196.4L503.6,196.4z M532.4,228.8h5.8v-37.7h-5.8V228.8z M679.8,190.9H674v37.7
	h17.4v-5.4h-11.6L679.8,190.9L679.8,190.9z M750.7,228.8h5.8v-37.7h-5.8V228.8z M779,212.7l11.7,16h-7.1l0,0l-10.7-15.4H772v15.4
	h-5.8V191h6.7c5,0,8.6,0.9,10.8,2.8c2.4,2.1,3.7,4.9,3.7,8.3c0,2.7-0.8,5-2.3,6.9C783.5,210.9,781.5,212.2,779,212.7z M773.6,208.2
	c2.7,0,4.7-0.5,6-1.5s2-2.6,2-4.6c0-3.8-2.6-5.7-7.8-5.7h-2v11.8H773.6z M814.8,194.2c2.2,2.1,3.3,4.8,3.3,8c0,3.4-1.2,6.4-3.5,8.5
	c-2.3,2-5.5,3-9.4,3h-2.6v15h-5.8V191h6.5c3.1,0,5.5,0.2,7.2,0.7C812.2,192.1,813.6,192.9,814.8,194.2z M810.5,197.8
	c-1.3-1-3.3-1.4-6-1.4h-1.8v11.9h2.1c2.6,0,4.5-0.5,5.8-1.5s1.9-2.7,1.9-4.7C812.5,200.2,811.8,198.8,810.5,197.8z M882.8,212.7
	l11.7,16h-7.1l0,0l-10.7-15.4h-0.9v15.4H870V191h6.7c5,0,8.6,0.9,10.8,2.8c2.4,2.1,3.7,4.9,3.7,8.3c0,2.7-0.8,5-2.3,6.9
	C887.2,210.9,885.2,212.2,882.8,212.7z M877.4,208.2c2.7,0,4.7-0.5,6-1.5s2-2.6,2-4.6c0-3.8-2.6-5.7-7.8-5.7h-2v11.8H877.4z
	 M651.4,190.4l17.2,38.4h-6.3l0,0l-3.9-9.1h-16l-4.2,9.1H632v-0.1l17.8-38.3H651.4L651.4,190.4z M656,214.2l-5.5-12.6l-5.8,12.6H656
	z M728.1,190.4l17.2,38.4H739l0,0l-3.9-9.1h-16l-4.2,9.1h-6.2v-0.1l17.8-38.3H728.1L728.1,190.4z M732.7,214.2l-5.5-12.6l-5.8,12.6
	H732.7z M487.1,190.4l17.2,38.4H498l0,0l-3.9-9.1h-16l-4.2,9.1h-6.2v-0.1l17.8-38.3H487.1L487.1,190.4z M491.7,214.2l-5.5-12.6
	l-5.8,12.6H491.7z M328.9,217.1l-25.6-26.7l0,0h-1.8v38.4h5.8v-26.2l25.8,26.9l0,0h1.6v-38.4h-5.8V217.1z M456.3,217.1l-25.6-26.7
	l0,0h-1.8v38.4h5.8v-26.2l25.8,26.9l0,0h1.6v-38.4h-5.8V217.1z M620.6,217.1L595,190.4l0,0h-1.8v38.4h5.8v-26.2l25.8,26.9l0,0h1.6
	v-38.4h-5.8V217.1z M579.6,196.1c3.8,3.8,5.8,8.5,5.8,13.8c0,5.4-2,10-5.8,13.8c-3.9,3.8-8.6,5.7-14.1,5.7c-4.8,0-9.2-1.7-13.1-5
	c-4.2-3.7-6.4-8.6-6.4-14.6c0-5.3,2-9.9,5.8-13.6c3.8-3.8,8.5-5.7,13.9-5.7C571.1,190.2,575.7,192.2,579.6,196.1z M579.4,209.9
	c0-4-1.3-7.3-4-10c-2.6-2.7-5.9-4-9.8-4c-3.9,0-7.2,1.4-9.8,4c-2.7,2.7-4,6-4,9.9c0,4.1,1.4,7.5,4.1,10.1c2.7,2.6,5.9,4,9.5,4
	c3.9,0,7.2-1.4,9.9-4C578.1,217.1,579.4,213.8,579.4,209.9z M856.3,196.1c3.8,3.8,5.8,8.5,5.8,13.8c0,5.4-2,10-5.8,13.8
	c-3.9,3.8-8.6,5.7-14.1,5.7c-4.8,0-9.2-1.7-13.1-5c-4.2-3.7-6.4-8.6-6.4-14.6c0-5.3,2-9.9,5.8-13.6c3.8-3.8,8.5-5.7,13.9-5.7
	C847.8,190.2,852.5,192.2,856.3,196.1z M856.2,209.9c0-4-1.3-7.3-4-10c-2.6-2.7-5.9-4-9.8-4c-3.9,0-7.2,1.4-9.8,4
	c-2.7,2.7-4,6-4,9.9c0,4.1,1.4,7.5,4.1,10.1c2.7,2.6,5.9,4,9.5,4c3.9,0,7.2-1.4,9.9-4C854.8,217.1,856.2,213.8,856.2,209.9z
	 M513.6,77.4h-15l5.3-2.9l-0.1-0.1c-1.7-3-5.5-8-8-10.7l-0.1-0.1l-5.2,2.9l-0.1,0.1l0.1,0.1c1.8,2.8,5.2,8.2,6.4,10.7h-15v-15h25.5
	V57h-25.5V45.2h26.9v-5.5h-60.7v5.5h25.5v11.7h-24.1v5.4h24.1v15.1h-30.2v5.4h70.2L513.6,77.4L513.6,77.4z M454.4,28.3h48.1v9.4h8.4
	v-9.4V23h-8.4h-19.9v-6.5l-8.1-1.3h-0.1v7.9h-19.9h-8.4v5.3v9.4h8.4v-9.5H454.4z M536.9,28.3h46.8v9.4h8.4v-9.4V23h-8.4h-19.3v-6.5
	l-8.1-1.3h-0.1v7.9h-19.3h-8.4v5.3v9.4h8.4L536.9,28.3L536.9,28.3z M542.7,48.4h-17.9v-5.3h21c2-3.6,3.8-7.2,5.6-11V32h0.1l8,2.4
	l-0.1,0.1c-1.5,2.9-3.1,5.8-4.8,8.6h41v5.4H582c-2.6,7.1-6.9,13.6-12.7,19c8.4,3.3,17,6.9,24.2,10.2h0.1l-0.1,0.1l-3.8,7.3h-0.1
	c-6.9-3.4-16.6-7.9-26.8-12.5c-0.4,0.2-0.7,0.5-1,0.7c-9.6,6.2-21.7,10.1-34.8,11.3h-0.1v-0.1l-1.8-5.3h0.1c7-1.2,19.4-3.3,30.3-9.9
	c-5-2.2-10-4.4-14.7-6.4l0,0l-5.7-2.4l0,0l-0.1-0.1l0.1-0.1C537.8,56.2,540.4,52.2,542.7,48.4z M544.8,58.2
	c4.3,1.6,10.4,3.8,17.3,6.4c4.7-4.1,8.8-9.3,11.5-16.1h-22C549.2,52.1,546.9,55.4,544.8,58.2z M285.8,24.5l0.2,0.2
	c2.9,2.3,5.6,4.5,9.3,8l0.1,0.1l4.4-5.4l0.1-0.1l-0.1-0.1c-3.1-2.7-8.1-6.6-12.8-9.5l-0.1-0.1l-3.6,4.8l-0.1,0.1l0.1,0.1
	C284.2,23.3,285,23.9,285.8,24.5z M292.8,50.6l4.6-5.3l0.1-0.1l-0.1-0.1c-4-3.4-8.2-6.9-12.6-9.7l-0.1-0.1l-3.7,4.5l-0.1,0.1L281,40
	C285.4,43.6,288,45.9,292.8,50.6L292.8,50.6z M290.5,56.4L290.5,56.4c-2.3,9.4-5.1,18.3-8.2,26.5V83l6.9,2.3h0.1v-0.1
	c2.8-8.3,6.5-21.1,7.3-27.3v-0.1L290.5,56.4L290.5,56.4z M310.7,25.1H342V33h7.6V19.7h-46.5V33h7.6V25.1z M305.9,48.2
	c5.5-3.9,11.8-8.4,17.1-13.2l0.1-0.1l-4.4-5l-0.1-0.1l-0.1,0.1c-5,4.8-9.5,8.6-16,13.5l-0.1,0.1L305.9,48.2L305.9,48.2z M337.2,33.2
	L337,33c-1.3-0.9-2.7-1.9-4-2.9l-0.1-0.1l-3.6,4.3l-0.1,0.1l0.1,0.1c1.6,1.3,3.3,2.5,4.9,3.7c3.5,2.6,7.1,5.4,11.1,8.9l0.1,0.1
	l4.4-5.2l0.1-0.1l-0.1-0.1c-2.7-2.2-5.5-4-8.2-5.8C340,35.1,338.6,34.2,337.2,33.2z M430.3,17.2h-7.6v68.5h7.6V17.2z M413.7,20.9
	h-7.6v59h7.6V20.9z M378.3,82.4l4.7,4.3l0.1,0.1l0.1-0.1c6.3-5.4,10.2-11.3,12.3-18.6c1.9-6.6,2-13.6,2.1-21.5V17.2h-7.8v29.5
	C389.7,61.7,389.7,70,378.3,82.4L378.3,82.4z M363.1,73.2c10.1-2.4,17.6-4.6,22.9-6.7h0.1l-0.6-5.6h-0.1c-2.9,0.8-5.2,1.4-7.3,1.9
	V38.8h7.8v-5.4h-7.8V16.7h-7.5v16.7H363v5.4h7.6v25.9c-2.5,0.6-5.1,1.1-8.5,1.8H362l0.9,6.8L363.1,73.2z M298.5,78.4L298.5,78.4
	L298.5,78.4c0,0.1,1.3,2.3,2.7,4.4l0.1,0.1l0.1-0.1c11-6.4,16-11.4,21.3-18.2v21.6h7.6V63.6c6.2,8.9,12.7,15.3,19.9,19.4h0.1l4-5.8
	l0.1-0.1l-0.1-0.1c-7.8-4.4-15.2-11.2-21.9-20.2h19v-5.4h-21v-9h-7.6v9h-21v5.4h17.6C315.6,62.6,311,69.7,298.5,78.4z M851.8,74.8
	c6.5-2,14.8-4.8,22.2-8.2h0.1l-0.9-6h-0.1c-2.3,0.9-4.6,1.7-6.8,2.4V39h7.8v-5.4h-7.8V15.7h-7.5v17.9h-7.9V39h7.9v26.5
	c-2.7,0.8-5.5,1.5-8.5,2.3h-0.1L851.8,74.8L851.8,74.8z M797.4,86L797.4,86c8.1-7.4,13.1-16.3,13.1-38.3v-24h12.4v53.7
	c0,3.3,2.7,6,6,6h7.8c1.6,0,6.7-0.7,6.7-8.2c0-10.2,0-13,0-13v-0.1l-6.3-1H837v13.3c0,0.1,0.1,1.8-0.8,2.7c-0.3,0.4-0.8,0.5-1.3,0.5
	h-2.4c-1.7,0-1.8-1.2-1.8-2.7V18.2h-28.2v0.1c0,1.4,0,18,0,29.3c0,18.9-2.6,25.4-9.9,33.9l-0.1,0.1L797.4,86L797.4,86z M873.2,77.8
	L873.2,77.8c6.4-4.1,10.8-8.6,13.9-14.2c2.4-4.5,4.1-9.8,5.2-16.8h6.9c-2.9,20-10.1,28.3-20,34.7l-0.1,0.1l3.7,4.1l0.1,0.1h0.1
	c6.7-3.3,11.8-7.7,15.7-13.4c4.6-6.7,7.3-15,8.5-25.5h4.1v27.7c0,1.5-0.9,3.7-3.3,3.7h-10.4l1.7,5.3v0.1h0.1h11.9h0.1
	c4.2-0.1,7.6-3.5,7.6-7.7v-29v-3.1v-2.3h-30.9c1.8-1,3.7-2.1,5.6-3.2c7.6-4.3,16.2-9.3,21.9-13.7l0.1-0.1v-0.5v-5.2H877v5.4h25.4
	c-5.6,4.6-16.6,11.1-24,15.5c-1.2,0.7-2.4,1.4-3.4,2h-0.1v0.2v4.7h9.5c-1.8,12-6.9,21.4-14.7,27.2l-0.1,0.1L873.2,77.8L873.2,77.8z
	 M774,66.6L774,66.6c3-5,5.6-10,8-15.3v34.2h7.4V49.2c2.1,2.4,4.9,6,6.4,8.2l0.1,0.1l5.1-4.8l0.1-0.1l-0.1-0.1
	c-2.7-3.1-6.6-7.1-9.1-9.4l-0.1-0.1l-2.4,2.2V34.9h8.9v-5.4h-8.9V15.6H782v13.9h-10.4v5.4h9.6c-2.2,9-8.7,21.7-11.4,26.8v0.1
	L774,66.6L774,66.6z M755.8,19.2h-37.7v5.5h37.7V19.2z M733.6,75.5c0,1,0,2-0.6,2.6c-0.5,0.5-1.3,0.7-2.4,0.7h-7.4l1.8,5.4v0.1h0.1
	h9.2h0.1c3.9-0.1,7.1-3.3,7.1-7.2V43h17.9v-5.5h-44.7V43h19L733.6,75.5z M662.9,66.8h-17.7V51.2h15.3V46h-15.3V34.2h16.5V29h-39.5
	v5.2h15.2v11.7h-14.2v5.2h14.2v15.5h-16.3v5.2h41.8V66.8z M674.6,82.8h-65.2V17.9h65.2V82.8z M666.6,23.3h-49.2v54.1h49.2V23.3z
	 M653.4,52.8l-4.1,3.2l-0.1,0.1l0.1,0.1c2.1,3,3.3,5.3,5.2,8.7l0.4,0.7l5.5-3.3l0.1-0.1l-0.1-0.1C658.6,59,656.2,55.9,653.4,52.8
	L653.4,52.8z M698.4,23.8h8.2c-1.3,6.7-3,13.7-4.9,20.3l-0.1,0.4l0,0c0.1,0.1,6.4,7.4,6.4,16.5c0,6.5-2.9,7.2-4.1,7.2H699l1.7,5.2
	v0.1h4.4c2.7,0,5.1-1.1,6.9-3c1.7-1.8,3.5-5.2,3.1-11.1c-0.7-9.4-7.3-15.5-7.4-15.6c2.1-6.3,4.1-12.3,6.2-19.9v-5.4H691v66.4h7.4
	V23.8z M722.9,50L722.9,50c-3.1,10.3-8.9,22.9-10.7,26.5v0.1l5.7,2.7h0.1v-0.1c4.1-7,9.8-21.1,11.7-27.2v-0.1L722.9,50z M750.1,50
	L750.1,50l-5.5,2.3h-0.1v0.1c2.5,5.9,7.3,19.2,9.2,26.7v0.1l7.4-2.7h0.1v-0.1C758.7,68.9,753.2,55.2,750.1,50z"/>
</svg>
